<svg width="1600" height="1000" viewBox="0 0 1600 1000" fill="none" xmlns="http://www.w3.org/2000/svg">
  <rect width="1600" height="1000" rx="48" fill="#EAF6F7"/>
  <rect x="72" y="72" width="1456" height="856" rx="36" fill="#FFFFFF"/>
  <rect x="120" y="120" width="1360" height="72" rx="24" fill="#D7F0EE"/>
  <circle cx="174" cy="156" r="16" fill="#0F766E"/>
  <circle cx="222" cy="156" r="16" fill="#14B8A6"/>
  <circle cx="270" cy="156" r="16" fill="#7DD3FC"/>
  <rect x="120" y="240" width="820" height="360" rx="28" fill="#ECFDF5"/>
  <rect x="968" y="240" width="512" height="170" rx="28" fill="#F0FDFA"/>
  <rect x="968" y="430" width="512" height="170" rx="28" fill="#EFF6FF"/>
  <rect x="120" y="636" width="300" height="228" rx="28" fill="#F8FAFC"/>
  <rect x="444" y="636" width="300" height="228" rx="28" fill="#F8FAFC"/>
  <rect x="768" y="636" width="300" height="228" rx="28" fill="#F8FAFC"/>
  <rect x="1092" y="636" width="388" height="228" rx="28" fill="#ECFEFF"/>
  <rect x="168" y="296" width="278" height="24" rx="12" fill="#14B8A6"/>
  <rect x="168" y="344" width="520" height="34" rx="17" fill="#0F172A" fill-opacity="0.92"/>
  <rect x="168" y="398" width="462" height="22" rx="11" fill="#64748B" fill-opacity="0.72"/>
  <rect x="168" y="438" width="404" height="22" rx="11" fill="#64748B" fill-opacity="0.52"/>
  <rect x="168" y="506" width="180" height="48" rx="24" fill="#0F766E"/>
  <rect x="168" y="678" width="176" height="18" rx="9" fill="#0F172A" fill-opacity="0.9"/>
  <rect x="168" y="716" width="210" height="16" rx="8" fill="#64748B" fill-opacity="0.52"/>
  <rect x="492" y="678" width="176" height="18" rx="9" fill="#0F172A" fill-opacity="0.9"/>
  <rect x="492" y="716" width="210" height="16" rx="8" fill="#64748B" fill-opacity="0.52"/>
  <rect x="816" y="678" width="176" height="18" rx="9" fill="#0F172A" fill-opacity="0.9"/>
  <rect x="816" y="716" width="210" height="16" rx="8" fill="#64748B" fill-opacity="0.52"/>
  <rect x="1016" y="288" width="196" height="18" rx="9" fill="#0F172A" fill-opacity="0.9"/>
  <rect x="1016" y="326" width="324" height="16" rx="8" fill="#64748B" fill-opacity="0.5"/>
  <rect x="1016" y="478" width="214" height="18" rx="9" fill="#0F172A" fill-opacity="0.9"/>
  <rect x="1016" y="516" width="340" height="16" rx="8" fill="#64748B" fill-opacity="0.5"/>
  <text x="120" y="950" fill="#0F172A" font-family="Arial, sans-serif" font-size="44" font-weight="700">Klinik Puri Medika Website</text>
  <text x="120" y="988" fill="#64748B" font-family="Arial, sans-serif" font-size="24">Placeholder thumbnail for portfolio preview</text>
</svg>
