<svg width="1600" height="1000" viewBox="0 0 1600 1000" fill="none" xmlns="http://www.w3.org/2000/svg">
  <rect width="1600" height="1000" rx="48" fill="#EEF4FF"/>
  <rect x="72" y="72" width="1456" height="856" rx="36" fill="#FFFFFF"/>
  <rect x="120" y="120" width="280" height="760" rx="28" fill="#E0EAFF"/>
  <rect x="432" y="120" width="1048" height="96" rx="28" fill="#EFF6FF"/>
  <rect x="432" y="248" width="312" height="182" rx="28" fill="#F8FAFC"/>
  <rect x="768" y="248" width="312" height="182" rx="28" fill="#F8FAFC"/>
  <rect x="1104" y="248" width="376" height="182" rx="28" fill="#DBEAFE"/>
  <rect x="432" y="462" width="1048" height="370" rx="28" fill="#F8FAFC"/>
  <rect x="168" y="184" width="138" height="18" rx="9" fill="#1D4ED8"/>
  <rect x="168" y="246" width="184" height="18" rx="9" fill="#0F172A" fill-opacity="0.88"/>
  <rect x="168" y="286" width="164" height="16" rx="8" fill="#64748B" fill-opacity="0.48"/>
  <rect x="168" y="348" width="184" height="18" rx="9" fill="#0F172A" fill-opacity="0.88"/>
  <rect x="168" y="388" width="164" height="16" rx="8" fill="#64748B" fill-opacity="0.48"/>
  <rect x="168" y="450" width="184" height="18" rx="9" fill="#0F172A" fill-opacity="0.88"/>
  <rect x="168" y="490" width="164" height="16" rx="8" fill="#64748B" fill-opacity="0.48"/>
  <rect x="480" y="156" width="244" height="24" rx="12" fill="#1D4ED8"/>
  <rect x="1210" y="148" width="222" height="40" rx="20" fill="#DBEAFE"/>
  <rect x="472" y="286" width="132" height="18" rx="9" fill="#0F172A" fill-opacity="0.9"/>
  <rect x="472" y="324" width="164" height="16" rx="8" fill="#64748B" fill-opacity="0.46"/>
  <rect x="808" y="286" width="132" height="18" rx="9" fill="#0F172A" fill-opacity="0.9"/>
  <rect x="808" y="324" width="164" height="16" rx="8" fill="#64748B" fill-opacity="0.46"/>
  <rect x="1144" y="286" width="132" height="18" rx="9" fill="#0F172A" fill-opacity="0.9"/>
  <rect x="1144" y="324" width="164" height="16" rx="8" fill="#64748B" fill-opacity="0.46"/>
  <rect x="480" y="510" width="208" height="20" rx="10" fill="#0F172A" fill-opacity="0.9"/>
  <rect x="480" y="554" width="748" height="16" rx="8" fill="#64748B" fill-opacity="0.36"/>
  <rect x="480" y="592" width="690" height="16" rx="8" fill="#64748B" fill-opacity="0.36"/>
  <rect x="480" y="650" width="952" height="112" rx="22" fill="#EFF6FF"/>
  <text x="120" y="950" fill="#0F172A" font-family="Arial, sans-serif" font-size="44" font-weight="700">CMS Klinik Puri Medika</text>
  <text x="120" y="988" fill="#64748B" font-family="Arial, sans-serif" font-size="24">Placeholder thumbnail for portfolio preview</text>
</svg>
